HIERARCHY
ROOT Hips
{
	OFFSET 0.000000 88.474243 0.000000
	CHANNELS 6 Xposition Yposition Zposition Zrotation Yrotation Xrotation 
	JOINT Hips_Spine
	{
		OFFSET 0.000000 0.000000 0.000000
		CHANNELS 3 Zrotation Yrotation Xrotation
		JOINT Spine
		{
			OFFSET 0.005100 8.711998 -0.691000
			CHANNELS 3 Zrotation Yrotation Xrotation
			JOINT Spine1
			{
				OFFSET -0.009200 8.660301 -1.275000
				CHANNELS 3 Zrotation Yrotation Xrotation
				JOINT Spine2
				{
					OFFSET 0.006300 9.852501 -1.857000
					CHANNELS 3 Zrotation Yrotation Xrotation
					JOINT Spine2_Neck
					{
						OFFSET 0.000000 0.000000 0.000000
						CHANNELS 3 Zrotation Yrotation Xrotation
						JOINT Neck
						{
							OFFSET 0.016300 11.420799 -0.263300
							CHANNELS 3 Zrotation Yrotation Xrotation
							End Site #name: Head
							{
								OFFSET -0.019200 9.262405 2.362500
							}
						}
					}
					JOINT Spine2_LeftShoulder
					{
						OFFSET 0.000000 0.000000 0.000000
						CHANNELS 3 Zrotation Yrotation Xrotation
						JOINT LeftShoulder
						{
							OFFSET 5.616900 6.732201 -0.345700
							CHANNELS 3 Zrotation Yrotation Xrotation
							JOINT LeftArm
							{
								OFFSET 10.664888 -0.183372 -2.440700
								CHANNELS 3 Zrotation Yrotation Xrotation
								JOINT LeftForeArm
								{
									OFFSET 27.459126 0.000000 0.000000
									CHANNELS 3 Zrotation Yrotation Xrotation
									End Site #name: LeftHand
									{
										OFFSET 21.306858 0.000000 0.000000
									}
								}
							}
						}
					}
					JOINT Spine2_RightShoulder
					{
						OFFSET 0.000000 0.000000 0.000000
						CHANNELS 3 Zrotation Yrotation Xrotation
						JOINT RightShoulder
						{
							OFFSET -5.580300 6.737503 -0.344400
							CHANNELS 3 Zrotation Yrotation Xrotation
							JOINT RightArm
							{
								OFFSET -10.679335 -0.188484 -2.383900
								CHANNELS 3 Zrotation Yrotation Xrotation
								JOINT RightForeArm
								{
									OFFSET -27.503529 0.000000 0.000000
									CHANNELS 3 Zrotation Yrotation Xrotation
									End Site #name: RightHand
									{
										OFFSET -21.306808 0.000000 0.000000
									}
								}
							}
						}
					}
				}
			}
		}
	}
	JOINT Hips_LeftUpLeg
	{
		OFFSET 0.000000 0.000000 0.000000
		CHANNELS 3 Zrotation Yrotation Xrotation
		JOINT LeftUpLeg
		{
			OFFSET 6.857700 -6.739601 0.312100
			CHANNELS 3 Zrotation Yrotation Xrotation
			JOINT LeftLeg
			{
				OFFSET -0.367590 -34.731552 -4.572400
				CHANNELS 3 Zrotation Yrotation Xrotation
				End Site #name: LeftFoot
				{
					OFFSET 0.367590 -34.656704 -6.067400
				}
			}
		}
	}
	JOINT Hips_RightUpLeg
	{
		OFFSET 0.000000 0.000000 0.000000
		CHANNELS 3 Zrotation Yrotation Xrotation
		JOINT RightUpLeg
		{
			OFFSET -6.876100 -6.733299 0.301000
			CHANNELS 3 Zrotation Yrotation Xrotation
			JOINT RightLeg
			{
				OFFSET 0.347353 -34.795158 -4.515900
				CHANNELS 3 Zrotation Yrotation Xrotation
				End Site #name: RightFoot
				{
					OFFSET -0.347353 -34.589367 -6.070300
				}
			}
		}
	}
}
MOTION
Frames: 15
Frame Time: 0.041667
-0.188263 -0.123796 -1.100443 -1.313171 -1.827399 -1.096124 0.000000 -0.000000 0.000000 -1.170556 0.672118 5.344690 -1.302738 -0.026261 2.933258 0.000000 0.000000 0.000000 -1.456537 -0.469549 1.827411 3.258647 -2.864606 8.749083 -1.383774 -0.472839 3.060189 -4.452939 6.448182 -0.672585 -70.960702 -4.767951 28.822759 0.101463 -8.652306 0.203320 -1.808729 -0.366643 2.610278 9.535518 -3.664046 0.348162 49.796956 37.778830 -6.784821 179.333596 40.079396 -179.785881 0.000000 -0.000000 -0.000000 1.622527 12.464167 -17.453556 3.041327 2.268399 18.734386 0.000000 -0.000000 0.000000 -1.227515 -10.071854 -12.363197 -0.036636 -1.642900 17.804598 
-0.223006 -0.129243 -1.129208 -1.266187 -1.831390 -1.098059 0.000000 -0.000000 0.000000 -1.152560 0.661628 5.284877 -1.262603 -0.026038 2.926829 0.000000 0.000000 0.000000 -1.405280 -0.470864 1.840884 3.188365 -2.822986 8.738199 -1.341152 -0.475113 3.065163 -4.517575 6.377140 -0.666612 -71.081010 -5.028310 28.538916 0.102427 -8.376887 0.202601 -1.761130 -0.379361 2.621576 9.842027 -3.695258 0.321624 50.367991 37.456771 -5.993319 179.345490 40.132457 -179.779385 0.000000 -0.000000 -0.000000 1.628877 12.465981 -17.428594 3.020953 2.220990 18.692436 0.000000 -0.000000 0.000000 -1.220656 -10.060489 -12.351287 -0.036028 -1.657002 17.785082 
-0.252658 -0.134785 -1.158228 -1.221307 -1.839070 -1.100821 0.000000 -0.000000 0.000000 -1.131796 0.650455 5.224517 -1.219968 -0.025439 2.919876 0.000000 0.000000 0.000000 -1.352576 -0.473205 1.857893 3.114838 -2.780725 8.727556 -1.296030 -0.475537 3.070725 -4.578129 6.304630 -0.659815 -71.191007 -5.284074 28.249287 0.101989 -8.084296 0.199994 -1.712247 -0.390081 2.631865 10.151337 -3.738027 0.296136 50.980628 37.057902 -5.120210 179.360607 40.297155 -179.773355 0.000000 -0.000000 -0.000000 1.636152 12.468307 -17.403726 3.001700 2.177308 18.651901 0.000000 -0.000000 0.000000 -1.213598 -10.046732 -12.340757 -0.033708 -1.668246 17.767071 
-0.277151 -0.140391 -1.187418 -1.178482 -1.845407 -1.104274 0.000000 -0.000000 0.000000 -1.113820 0.640367 5.159573 -1.176223 -0.024365 2.913045 0.000000 0.000000 0.000000 -1.299705 -0.476443 1.876513 3.040746 -2.737190 8.710981 -1.248443 -0.474640 3.076530 -4.642545 6.227425 -0.652795 -71.306590 -5.560275 27.952054 0.101968 -7.790582 0.197197 -1.660646 -0.402134 2.642593 10.452518 -3.808826 0.264368 51.686751 36.486558 -4.102125 179.377304 40.628124 -179.772866 0.000000 -0.000000 -0.000000 1.641368 12.471926 -17.378904 2.983736 2.137499 18.608929 0.000000 -0.000000 0.000000 -1.210243 -10.031575 -12.325869 -0.033103 -1.682197 17.739798 
-0.296413 -0.146040 -1.216746 -1.137076 -1.854240 -1.107220 0.000000 -0.000000 0.000000 -1.100485 0.630029 5.093406 -1.130833 -0.023020 2.906388 0.000000 0.000000 0.000000 -1.243835 -0.477451 1.897398 2.970244 -2.691988 8.688540 -1.199180 -0.472709 3.082916 -4.706648 6.148073 -0.645001 -71.417412 -5.806703 27.643682 0.101457 -7.488344 0.194732 -1.606805 -0.405873 2.654588 10.758084 -3.888501 0.229291 52.525299 35.809779 -2.914920 179.394981 41.047339 -179.769106 0.000000 -0.000000 -0.000000 1.645319 12.473998 -17.360499 2.969515 2.104845 18.576192 0.000000 -0.000000 0.000000 -1.210764 -10.019774 -12.311866 -0.029882 -1.694339 17.716954 
-0.310772 -0.151605 -1.246200 -1.099735 -1.865912 -1.111734 0.000000 -0.000000 0.000000 -1.089775 0.619896 5.023708 -1.083770 -0.021065 2.898355 0.000000 0.000000 0.000000 -1.187027 -0.478101 1.917970 2.894416 -2.644484 8.663048 -1.148743 -0.469937 3.088269 -4.770750 6.049779 -0.634953 -71.534026 -6.058756 27.355419 0.100289 -7.183872 0.192556 -1.552605 -0.405756 2.668700 11.037604 -3.913142 0.198676 53.340385 35.071982 -1.761509 179.418925 41.614253 -179.763478 0.000000 -0.000000 -0.000000 1.648422 12.477466 -17.336863 2.956996 2.082115 18.535329 0.000000 -0.000000 0.000000 -1.211287 -10.005691 -12.294060 -0.027698 -1.705576 17.687290 
-0.320584 -0.157135 -1.275677 -1.066606 -1.880459 -1.117141 0.000000 -0.000000 0.000000 -1.079931 0.610114 4.951380 -1.035057 -0.019294 2.889767 0.000000 0.000000 0.000000 -1.128007 -0.478158 1.940235 2.817736 -2.593470 8.625200 -1.094716 -0.468300 3.093864 -4.835722 5.944355 -0.623650 -71.659321 -6.324950 27.040126 0.099077 -6.868902 0.188816 -1.499200 -0.400803 2.676831 11.284558 -3.893355 0.183434 54.039110 34.340458 -0.696969 179.446861 42.356722 -179.757962 0.000000 -0.000000 -0.000000 1.652332 12.483027 -17.314491 2.948720 2.070232 18.501604 0.000000 -0.000000 0.000000 -1.212772 -9.991619 -12.276008 -0.026491 -1.715765 17.657780 
-0.326054 -0.162630 -1.305273 -1.038068 -1.898349 -1.124412 0.000000 -0.000000 0.000000 -1.069648 0.600076 4.880856 -0.985704 -0.017537 2.883486 0.000000 0.000000 0.000000 -1.068238 -0.477748 1.962988 2.734469 -2.542945 8.581246 -1.040527 -0.463963 3.101300 -4.916350 5.815424 -0.609258 -71.793794 -6.590020 26.711293 0.098167 -6.528618 0.185109 -1.440679 -0.392548 2.686067 11.539009 -3.854353 0.168784 54.671040 33.645705 0.312046 179.475914 43.144117 -179.752891 0.000000 -0.000000 -0.000000 1.654718 12.488521 -17.290234 2.945705 2.064972 18.468896 0.000000 -0.000000 0.000000 -1.216717 -9.978293 -12.260881 -0.022513 -1.718806 17.632552 
-0.327487 -0.168031 -1.334938 -1.012725 -1.919290 -1.132153 0.000000 -0.000000 0.000000 -1.058242 0.590706 4.814448 -0.934901 -0.016482 2.878793 0.000000 0.000000 0.000000 -1.006652 -0.476651 1.989144 2.647816 -2.493966 8.523740 -0.983871 -0.459797 3.109798 -4.996971 5.682610 -0.594319 -71.916933 -6.875442 26.376048 0.095390 -6.192895 0.182458 -1.380712 -0.383633 2.694881 11.786324 -3.814671 0.155453 55.309200 32.939092 1.341117 179.508193 43.975324 -179.745702 0.000000 -0.000000 -0.000000 1.658279 12.494966 -17.271602 2.944727 2.069814 18.446206 0.000000 -0.000000 0.000000 -1.222168 -9.966244 -12.243210 -0.022054 -1.724620 17.604743 
-0.324686 -0.173253 -1.364649 -0.991393 -1.946362 -1.139374 0.000000 -0.000000 0.000000 -1.046271 0.581801 4.747720 -0.883713 -0.014666 2.876640 0.000000 0.000000 0.000000 -0.944188 -0.476186 2.017347 2.556823 -2.447518 8.456654 -0.926452 -0.454971 3.120070 -5.085195 5.550043 -0.579577 -72.004103 -7.101922 25.983288 0.093816 -5.855506 0.179102 -1.319375 -0.373679 2.704743 12.017288 -3.768226 0.144040 55.963977 32.221442 2.395188 179.540631 44.841584 -179.738543 0.000000 -0.000000 -0.000000 1.660299 12.501203 -17.250427 2.947799 2.083561 18.418758 0.000000 -0.000000 0.000000 -1.229573 -9.949881 -12.225691 -0.019710 -1.728457 17.575335 
-0.317463 -0.178313 -1.394285 -0.974085 -1.976889 -1.147790 0.000000 -0.000000 0.000000 -1.034431 0.574473 4.680945 -0.831417 -0.012837 2.876149 0.000000 0.000000 0.000000 -0.880729 -0.475261 2.045619 2.460364 -2.399438 8.387393 -0.868295 -0.449046 3.131250 -5.170787 5.409181 -0.561429 -72.099027 -7.333376 25.588582 0.092286 -5.484065 0.176549 -1.257041 -0.362725 2.715008 12.196413 -3.663100 0.138580 56.741297 31.524246 3.539989 179.571033 45.841551 -179.740523 0.000000 -0.000000 -0.000000 1.664850 12.508115 -17.230363 2.953478 2.108402 18.401794 0.000000 -0.000000 0.000000 -1.239053 -9.933729 -12.209298 -0.017883 -1.730844 17.548567 
-0.305522 -0.183064 -1.423869 -0.960678 -2.014105 -1.155636 0.000000 -0.000000 0.000000 -1.022426 0.564773 4.616254 -0.779199 -0.010966 2.875863 0.000000 0.000000 0.000000 -0.816900 -0.474533 2.075636 2.361808 -2.350156 8.313898 -0.810015 -0.442846 3.143410 -5.265812 5.261489 -0.542059 -72.179168 -7.564073 25.226949 0.089194 -5.119043 0.173545 -1.194478 -0.350402 2.725613 12.343688 -3.485596 0.145710 57.806813 30.800878 4.869707 179.597806 47.121198 -179.737914 0.000000 -0.000000 -0.000000 1.667313 12.515319 -17.208676 2.961802 2.141588 18.383393 0.000000 -0.000000 0.000000 -1.247948 -9.912140 -12.190754 -0.015696 -1.734429 17.519582 
-0.288600 -0.187423 -1.453438 -0.951265 -2.054322 -1.164121 0.000000 -0.000000 0.000000 -1.009679 0.555643 4.548760 -0.726778 -0.009474 2.875640 0.000000 0.000000 0.000000 -0.748971 -0.474991 2.108085 2.258060 -2.298655 8.242891 -0.750795 -0.437475 3.156292 -5.340767 5.115932 -0.522034 -72.234706 -7.808563 24.817576 0.087248 -4.741763 0.171073 -1.129815 -0.338505 2.734681 12.478832 -3.295463 0.152897 59.175364 29.852994 6.585017 179.623261 48.448036 -179.733829 0.000000 -0.000000 -0.000000 1.671009 12.521648 -17.190215 2.972432 2.184386 18.371652 0.000000 -0.000000 0.000000 -1.257827 -9.884701 -12.174574 -0.013547 -1.741887 17.488863 
-0.266441 -0.191351 -1.482839 -0.946079 -2.093535 -1.171501 0.000000 -0.000000 0.000000 -0.997108 0.544850 4.477394 -0.675186 -0.008348 2.875579 0.000000 0.000000 0.000000 -0.687161 -0.468525 2.136058 2.176340 -2.252395 8.231498 -0.693084 -0.433469 3.166719 -5.407364 4.951168 -0.495851 -72.263213 -8.040074 24.339685 0.085476 -4.330680 0.166665 -1.066747 -0.326896 2.742386 12.598359 -3.121949 0.157945 60.510024 28.415723 8.341920 179.651891 49.837920 -179.726454 0.000000 -0.000000 -0.000000 1.671116 12.527581 -17.170183 2.986606 2.236342 18.360356 0.000000 -0.000000 0.000000 -1.268410 -9.851333 -12.159705 -0.010482 -1.746694 17.458090 
-0.238754 -0.194717 -1.512061 -0.944939 -2.135496 -1.178068 0.000000 -0.000000 0.000000 -0.983289 0.531403 4.398863 -0.625480 -0.007941 2.872440 0.000000 0.000000 0.000000 -0.628713 -0.461090 2.160864 2.091394 -2.204462 8.220532 -0.636638 -0.429286 3.173979 -5.483518 4.773496 -0.462519 -72.278425 -8.270337 23.787149 0.084674 -3.926679 0.165808 -1.004378 -0.315310 2.748582 12.726639 -2.974114 0.151692 61.680006 26.636204 9.874219 179.684452 51.397155 -179.716938 0.000000 -0.000000 -0.000000 1.669992 12.531850 -17.152460 3.002588 2.297147 18.355485 0.000000 -0.000000 0.000000 -1.281081 -9.812042 -12.140688 -0.007813 -1.754647 17.416955 
